<?xml version="1.0" standalone="no"?>
<!DOCTYPE svg PUBLIC "-//W3C//DTD SVG 20010904//EN"
 "http://www.w3.org/TR/2001/REC-SVG-20010904/DTD/svg10.dtd">
<svg version="1.0" xmlns="http://www.w3.org/2000/svg"
 width="512.000000pt" height="512.000000pt" viewBox="0 0 512.000000 512.000000"
 preserveAspectRatio="xMidYMid meet">
<metadata>
Created by potrace 1.16, written by Peter Selinger 2001-2019
</metadata>
<g transform="translate(0.000000,512.000000) scale(0.100000,-0.100000)"
fill="#ffffff" stroke="none">
<path d="M1206 3936 c-30 -11 -113 -88 -324 -298 -156 -156 -297 -300 -314
-321 -41 -52 -50 -136 -20 -199 16 -31 289 -310 964 -985 1003 -1001 961 -963
1053 -963 82 0 88 6 1067 986 1002 1005 958 957 958 1054 -1 71 -31 108 -341
417 -269 266 -309 303 -349 313 -49 13 -106 7 -154 -16 -17 -9 -291 -275 -608
-592 l-578 -577 -577 577 c-318 317 -593 583 -611 593 -47 23 -120 28 -166 11z"/>
</g>
</svg>
