<svg width="963" height="127" viewBox="0 0 963 127" fill="none" xmlns="http://www.w3.org/2000/svg">
<g clip-path="url(#clip0)">
<path d="M939.002 115.913H885.563V105.833H939.002V115.913ZM931.368 55.4365C925.948 55.4365 920.909 59.3171 918.199 65.5159H916.1V40.3175H927.551V30.2381H916.1V15.119H908.466V30.2381H897.014V40.3175H908.466V65.5159H906.366C902.167 55.8901 892.816 52.5639 885.563 58.1579C882.047 60.8132 879.471 65.1989 878.398 70.3557C877.325 75.5125 877.843 81.0204 879.838 85.6746C882.662 91.9238 887.739 95.754 893.197 95.754H931.368C935.417 95.754 939.301 93.6301 942.164 89.8496C945.028 86.0691 946.636 80.9417 946.636 75.5952C946.636 70.2488 945.028 65.1214 942.164 61.3409C939.301 57.5604 935.417 55.4365 931.368 55.4365Z" fill="white"/>
<path d="M158.953 12.625V82.2344C158.906 91.8906 155.859 99.7891 149.812 105.93C143.812 112.07 135.656 115.516 125.344 116.266L121.758 116.406C110.555 116.406 101.625 113.383 94.9688 107.336C88.3125 101.289 84.9375 92.9688 84.8438 82.375V12.625H98.2031V81.9531C98.2031 89.3594 100.242 95.125 104.32 99.25C108.398 103.328 114.211 105.367 121.758 105.367C129.398 105.367 135.234 103.328 139.266 99.25C143.344 95.1719 145.383 89.4297 145.383 82.0234V12.625H158.953ZM206.273 67.3984L193.758 80.4062V115H180.258V12.625H193.758V63.25L239.25 12.625H255.562L215.273 57.8359L258.727 115H242.555L206.273 67.3984ZM287.977 12.625L321.445 96.1562L354.914 12.625H372.422V115H358.922V75.1328L360.188 32.1016L326.578 115H316.242L282.703 32.3125L284.039 75.1328V115H270.539V12.625H287.977ZM507.281 82.5156C506.016 93.3438 502.008 101.711 495.258 107.617C488.555 113.477 479.625 116.406 468.469 116.406C456.375 116.406 446.672 112.07 439.359 103.398C432.094 94.7266 428.461 83.125 428.461 68.5938V58.75C428.461 49.2344 430.148 40.8672 433.523 33.6484C436.945 26.4297 441.773 20.8984 448.008 17.0547C454.242 13.1641 461.461 11.2188 469.664 11.2188C480.539 11.2188 489.258 14.2656 495.82 20.3594C502.383 26.4062 506.203 34.7969 507.281 45.5312H493.711C492.539 37.375 489.984 31.4688 486.047 27.8125C482.156 24.1562 476.695 22.3281 469.664 22.3281C461.039 22.3281 454.266 25.5156 449.344 31.8906C444.469 38.2656 442.031 47.3359 442.031 59.1016V69.0156C442.031 80.125 444.352 88.9609 448.992 95.5234C453.633 102.086 460.125 105.367 468.469 105.367C475.969 105.367 481.711 103.68 485.695 100.305C489.727 96.8828 492.398 90.9531 493.711 82.5156H507.281ZM582.305 88.2812H539.414L529.781 115H515.859L554.953 12.625H566.766L605.93 115H592.078L582.305 88.2812ZM543.492 77.1719H578.297L560.859 29.2891L543.492 77.1719ZM681.305 23.7344H648.398V115H634.969V23.7344H602.133V12.625H681.305V23.7344ZM768.562 12.625V82.2344C768.516 91.8906 765.469 99.7891 759.422 105.93C753.422 112.07 745.266 115.516 734.953 116.266L731.367 116.406C720.164 116.406 711.234 113.383 704.578 107.336C697.922 101.289 694.547 92.9688 694.453 82.375V12.625H707.812V81.9531C707.812 89.3594 709.852 95.125 713.93 99.25C718.008 103.328 723.82 105.367 731.367 105.367C739.008 105.367 744.844 103.328 748.875 99.25C752.953 95.1719 754.992 89.4297 754.992 82.0234V12.625H768.562ZM827.414 73.5859H803.367V115H789.797V12.625H823.688C835.219 12.625 844.078 15.25 850.266 20.5C856.5 25.75 859.617 33.3906 859.617 43.4219C859.617 49.7969 857.883 55.3516 854.414 60.0859C850.992 64.8203 846.211 68.3594 840.07 70.7031L864.117 114.156V115H849.633L827.414 73.5859ZM803.367 62.5469H824.109C830.812 62.5469 836.133 60.8125 840.07 57.3438C844.055 53.875 846.047 49.2344 846.047 43.4219C846.047 37.0938 844.148 32.2422 840.352 28.8672C836.602 25.4922 831.164 23.7813 824.039 23.7344H803.367V62.5469Z" fill="white"/>
<path d="M60.1875 20.1587C62.4679 20.1587 64.6549 21.2207 66.2673 23.1109C67.8798 25.0012 68.7857 27.5649 68.7857 30.2381C68.7857 34.3202 66.6362 37.7976 63.7557 39.4103L55.8884 71.3115V95.754H12.8973V71.3115L5.02995 39.4103C2.14955 37.7976 0 34.3202 0 30.2381C0 27.5649 0.90588 25.0012 2.51836 23.1109C4.13084 21.2207 6.31783 20.1587 8.59821 20.1587C10.8786 20.1587 13.0656 21.2207 14.6781 23.1109C16.2905 25.0012 17.1964 27.5649 17.1964 30.2381C17.1964 32.7579 16.4226 35.0258 15.0469 36.7897L27.0844 52.1607L29.3629 33.3627C27.2133 31.5484 25.7946 28.575 25.7946 25.1984C25.7946 22.5252 26.7005 19.9615 28.313 18.0712C29.9255 16.181 32.1125 15.119 34.3929 15.119C36.6732 15.119 38.8602 16.181 40.4727 18.0712C42.0852 19.9615 42.9911 22.5252 42.9911 25.1984C42.9911 28.575 41.5724 31.5484 39.4228 33.3627L41.7013 52.1607L53.6099 36.7393C52.303 34.9196 51.5873 32.6168 51.5893 30.2381C51.5893 27.5649 52.4952 25.0012 54.1076 23.1109C55.7201 21.2207 57.9071 20.1587 60.1875 20.1587ZM4.29911 105.833H64.4866V115.913H4.29911V105.833Z" fill="white"/>
</g>
<defs>
<clipPath id="clip0">
<rect width="963" height="127" fill="white"/>
</clipPath>
</defs>
</svg>
